<svg width="23" height="23" viewBox="0 0 23 23" fill="none" xmlns="http://www.w3.org/2000/svg">
<path d="M8.58116 5.07C9.76897 2.94 10.3624 1.875 11.2502 1.875C12.138 1.875 12.7315 2.94 13.9193 5.07L14.2268 5.62125C14.5643 6.22687 14.733 6.52969 14.9955 6.72937C15.258 6.92906 15.5862 7.00312 16.2424 7.15125L16.8387 7.28625C19.1449 7.80844 20.2971 8.06906 20.5718 8.95125C20.8455 9.8325 20.0599 10.7522 18.4877 12.5906L18.0808 13.0659C17.6346 13.5881 17.4105 13.8497 17.3102 14.1722C17.2099 14.4956 17.2437 14.8444 17.3112 15.5409L17.373 16.1756C17.6102 18.6291 17.7293 19.8553 17.0112 20.4C16.293 20.9447 15.213 20.4478 13.0549 19.4541L12.4952 19.1972C11.8821 18.9141 11.5755 18.7734 11.2502 18.7734C10.9249 18.7734 10.6183 18.9141 10.0052 19.1972L9.44647 19.4541C7.28741 20.4478 6.20741 20.9447 5.49022 20.4009C4.77116 19.8553 4.89022 18.6291 5.12741 16.1756L5.18928 15.5419C5.25678 14.8444 5.29053 14.4956 5.18928 14.1731C5.08991 13.8497 4.86585 13.5881 4.4196 13.0669L4.01272 12.5906C2.44053 10.7531 1.65491 9.83344 1.92866 8.95125C2.20241 8.06906 3.35647 7.8075 5.66272 7.28625L6.25897 7.15125C6.91428 7.00312 7.24147 6.92906 7.50491 6.72937C7.76835 6.52969 7.93616 6.22687 8.27366 5.62125L8.58116 5.07Z" fill="#FFCC00"/>
</svg>
