<svg width="20" height="20" viewBox="0 0 20 20" fill="none" xmlns="http://www.w3.org/2000/svg">
<path d="M6.96094 16.8683C7.32356 17.3268 7.78564 17.697 8.31228 17.9508C8.83892 18.2046 9.41634 18.3354 10.0009 18.3333C10.5855 18.3354 11.163 18.2046 11.6896 17.9508C12.2162 17.697 12.6783 17.3268 13.0409 16.8683C11.0235 17.1413 8.97841 17.1413 6.96094 16.8683Z" fill="#1E40AF"/>
<path fill-rule="evenodd" clip-rule="evenodd" d="M15.6251 8.08663V7.49996C15.6251 4.27829 13.1059 1.66663 10.0001 1.66663C6.89422 1.66663 4.37505 4.27829 4.37505 7.49996V8.08663C4.37505 8.79079 4.17505 9.47913 3.79839 10.065L2.87505 11.5008C2.03255 12.8125 2.67588 14.595 4.14172 15.0091C7.97196 16.0938 12.0281 16.0938 15.8584 15.0091C17.3242 14.595 17.9676 12.8125 17.1251 11.5008L16.2017 10.065C15.824 9.47429 15.6245 8.78772 15.6251 8.08663ZM10.0001 4.37496C10.1658 4.37496 10.3248 4.44081 10.442 4.55802C10.5592 4.67523 10.6251 4.8342 10.6251 4.99996V8.33329C10.6251 8.49905 10.5592 8.65802 10.442 8.77523C10.3248 8.89244 10.1658 8.95829 10.0001 8.95829C9.83429 8.95829 9.67532 8.89244 9.55811 8.77523C9.4409 8.65802 9.37505 8.49905 9.37505 8.33329V4.99996C9.37505 4.8342 9.4409 4.67523 9.55811 4.55802C9.67532 4.44081 9.83429 4.37496 10.0001 4.37496Z" fill="#1E40AF"/>
</svg>
