<svg width="20" height="20" viewBox="0 0 20 20" fill="none" xmlns="http://www.w3.org/2000/svg">
<path d="M3.3335 6.6665C3.3335 4.30984 3.3335 3.13067 4.066 2.399C4.79766 1.6665 5.97683 1.6665 8.3335 1.6665H11.6668C14.0235 1.6665 15.2027 1.6665 15.9343 2.399C16.6668 3.13067 16.6668 4.30984 16.6668 6.6665V13.3332C16.6668 15.6898 16.6668 16.869 15.9343 17.6007C15.2027 18.3332 14.0235 18.3332 11.6668 18.3332H8.3335C5.97683 18.3332 4.79766 18.3332 4.066 17.6007C3.3335 16.869 3.3335 15.6898 3.3335 13.3332V6.6665Z" stroke="#6B7280" stroke-width="1.25"/>
<path d="M16.5818 13.333H6.58183C5.80683 13.333 5.41933 13.333 5.101 13.418C4.67709 13.5317 4.29058 13.7549 3.98031 14.0654C3.67005 14.3758 3.44697 14.7624 3.3335 15.1863" stroke="#6B7280" stroke-width="1.25"/>
<path d="M6.66699 5.83301H13.3337M6.66699 8.74967H10.8337M16.2503 15.833H6.66699" stroke="#6B7280" stroke-width="1.25" stroke-linecap="round"/>
</svg>
