<svg width="40" height="32" viewBox="0 0 40 32" fill="none" xmlns="http://www.w3.org/2000/svg">
<path fill-rule="evenodd" clip-rule="evenodd" d="M0 17V15C0 8.426 0 5.138 1.816 2.924C2.14819 2.5193 2.5193 2.14819 2.924 1.816C5.14 0 8.424 0 15 0C21.574 0 24.862 0 27.076 1.816C27.4807 2.14819 27.8518 2.5193 28.184 2.924C29.588 4.634 29.906 6.986 29.978 11L31.318 10.34C35.208 8.396 37.154 7.422 38.578 8.302C40.002 9.182 40 11.36 40 15.708V16.292C40 20.642 40 22.818 38.578 23.698C37.154 24.578 35.208 23.604 31.318 21.658L29.978 21C29.906 25.014 29.588 27.366 28.184 29.076C27.8518 29.4807 27.4807 29.8518 27.076 30.184C24.86 32 21.576 32 15 32C8.426 32 5.138 32 2.924 30.184C2.5193 29.8518 2.14819 29.4807 1.816 29.076C0 26.86 0 23.576 0 17ZM23.12 11.12C23.4113 10.8444 23.6443 10.5132 23.8053 10.146C23.9664 9.77874 24.0522 9.38296 24.0577 8.98201C24.0632 8.58106 23.9882 8.18308 23.8373 7.81159C23.6863 7.44011 23.4624 7.10265 23.1788 6.81918C22.8952 6.53571 22.5576 6.31196 22.1861 6.16118C21.8145 6.0104 21.4165 5.93563 21.0156 5.9413C20.6146 5.94697 20.2189 6.03296 19.8517 6.19419C19.4846 6.35542 19.1535 6.58862 18.878 6.88C18.3318 7.44606 18.0298 8.20401 18.037 8.9906C18.0442 9.77719 18.36 10.5295 18.9165 11.0855C19.473 11.6414 20.2256 11.9566 21.0122 11.963C21.7988 11.9695 22.5545 11.6667 23.12 11.12Z" fill="#6155F5"/>
</svg>
