<svg width="14" height="14" viewBox="0 0 14 14" fill="none" xmlns="http://www.w3.org/2000/svg">
<path d="M6.99844 1.90039C8.64844 1.90039 8.87344 1.90039 9.54844 1.90039C10.1484 1.90039 10.4484 2.05039 10.6734 2.12539C10.9734 2.27539 11.1984 2.35039 11.4234 2.57539C11.6484 2.80039 11.7984 3.02539 11.8734 3.32539C11.9484 3.55039 12.0234 3.85039 12.0984 4.45039C12.0984 5.12539 12.0984 5.27539 12.0984 7.00039C12.0984 8.72539 12.0984 8.87539 12.0984 9.55039C12.0984 10.1504 11.9484 10.4504 11.8734 10.6754C11.7234 10.9754 11.6484 11.2004 11.4234 11.4254C11.1984 11.6504 10.9734 11.8004 10.6734 11.8754C10.4484 11.9504 10.1484 12.0254 9.54844 12.1004C8.87344 12.1004 8.72344 12.1004 6.99844 12.1004C5.27344 12.1004 5.12344 12.1004 4.44844 12.1004C3.84844 12.1004 3.54844 11.9504 3.32344 11.8754C3.02344 11.7254 2.79844 11.6504 2.57344 11.4254C2.34844 11.2004 2.19844 10.9754 2.12344 10.6754C2.04844 10.4504 1.97344 10.1504 1.89844 9.55039C1.89844 8.87539 1.89844 8.72539 1.89844 7.00039C1.89844 5.27539 1.89844 5.12539 1.89844 4.45039C1.89844 3.85039 2.04844 3.55039 2.12344 3.32539C2.27344 3.02539 2.34844 2.80039 2.57344 2.57539C2.79844 2.35039 3.02344 2.20039 3.32344 2.12539C3.54844 2.05039 3.84844 1.97539 4.44844 1.90039C5.12344 1.90039 5.34844 1.90039 6.99844 1.90039ZM6.99844 0.775391C5.27344 0.775391 5.12344 0.775391 4.44844 0.775391C3.77344 0.775391 3.32344 0.925391 2.94844 1.07539C2.57344 1.22539 2.19844 1.45039 1.82344 1.82539C1.44844 2.20039 1.29844 2.50039 1.07344 2.95039C0.923438 3.32539 0.848438 3.77539 0.773438 4.45039C0.773438 5.12539 0.773438 5.35039 0.773438 7.00039C0.773438 8.72539 0.773438 8.87539 0.773438 9.55039C0.773438 10.2254 0.923438 10.6754 1.07344 11.0504C1.22344 11.4254 1.44844 11.8004 1.82344 12.1754C2.19844 12.5504 2.49844 12.7004 2.94844 12.9254C3.32344 13.0754 3.77344 13.1504 4.44844 13.2254C5.12344 13.2254 5.34844 13.2254 6.99844 13.2254C8.64844 13.2254 8.87344 13.2254 9.54844 13.2254C10.2234 13.2254 10.6734 13.0754 11.0484 12.9254C11.4234 12.7754 11.7984 12.5504 12.1734 12.1754C12.5484 11.8004 12.6984 11.5004 12.9234 11.0504C13.0734 10.6754 13.1484 10.2254 13.2234 9.55039C13.2234 8.87539 13.2234 8.65039 13.2234 7.00039C13.2234 5.35039 13.2234 5.12539 13.2234 4.45039C13.2234 3.77539 13.0734 3.32539 12.9234 2.95039C12.7734 2.57539 12.5484 2.20039 12.1734 1.82539C11.7984 1.45039 11.4984 1.30039 11.0484 1.07539C10.6734 0.925391 10.2234 0.850391 9.54844 0.775391C8.87344 0.775391 8.72344 0.775391 6.99844 0.775391Z" fill="white"/>
<path d="M6.99844 3.77539C5.19844 3.77539 3.77344 5.20039 3.77344 7.00039C3.77344 8.80039 5.19844 10.2254 6.99844 10.2254C8.79844 10.2254 10.2234 8.80039 10.2234 7.00039C10.2234 5.20039 8.79844 3.77539 6.99844 3.77539ZM6.99844 9.10039C5.87344 9.10039 4.89844 8.20039 4.89844 7.00039C4.89844 5.87539 5.79844 4.90039 6.99844 4.90039C8.12344 4.90039 9.09844 5.80039 9.09844 7.00039C9.09844 8.12539 8.12344 9.10039 6.99844 9.10039Z" fill="white"/>
<path d="M10.2984 4.45039C10.7127 4.45039 11.0484 4.1146 11.0484 3.70039C11.0484 3.28618 10.7127 2.95039 10.2984 2.95039C9.88422 2.95039 9.54844 3.28618 9.54844 3.70039C9.54844 4.1146 9.88422 4.45039 10.2984 4.45039Z" fill="white"/>
</svg>
