<svg width="23" height="23" viewBox="0 0 23 23" fill="none" xmlns="http://www.w3.org/2000/svg">
<g clip-path="url(#clip0_85_12644)">
<path d="M12.5703 2.1133L11.6484 0.246113C11.4961 -0.0781055 11.0195 -0.0898243 10.8516 0.246113L9.92969 2.1133L7.88672 2.40627C7.52344 2.46096 7.36719 2.91018 7.63672 3.17971L9.12109 4.62502L8.76953 6.66018C8.71484 7.02346 9.08984 7.30471 9.42578 7.13674L11.2578 6.16799L13.0781 7.12111C13.4141 7.28908 13.793 7.00783 13.7344 6.64455L13.3828 4.60939L14.8672 3.17971C15.1328 2.91408 14.9805 2.46486 14.6172 2.40627L12.5742 2.1133H12.5703ZM10 10C8.96484 10 8.125 10.8399 8.125 11.875V18.125C8.125 19.1602 8.96484 20 10 20H12.5C13.5352 20 14.375 19.1602 14.375 18.125V11.875C14.375 10.8399 13.5352 10 12.5 10H10ZM1.875 12.5C0.839844 12.5 0 13.3399 0 14.375V18.125C0 19.1602 0.839844 20 1.875 20H4.375C5.41016 20 6.25 19.1602 6.25 18.125V14.375C6.25 13.3399 5.41016 12.5 4.375 12.5H1.875ZM16.25 16.875V18.125C16.25 19.1602 17.0898 20 18.125 20H20.625C21.6602 20 22.5 19.1602 22.5 18.125V16.875C22.5 15.8399 21.6602 15 20.625 15H18.125C17.0898 15 16.25 15.8399 16.25 16.875Z" fill="#AC7F5E"/>
</g>
<defs>
<clipPath id="clip0_85_12644">
<rect width="22.5" height="22.5" fill="white"/>
</clipPath>
</defs>
</svg>
