<svg width="106" height="40" viewBox="0 0 106 40" fill="none" xmlns="http://www.w3.org/2000/svg">
<path opacity="0.5" d="M48.6367 35.238H51.3711V24.9237H48.6367V35.238ZM48.6367 23.3152H51.3711V20.8623H48.6367V23.3152Z" fill="#1F140D"/>
<path opacity="0.5" d="M53.1328 38.6162H55.8672V34.0723H55.9075C56.4905 34.9569 57.4355 35.54 58.8831 35.54C61.5371 35.54 63.3466 33.4289 63.3466 30.0913C63.3466 26.8743 61.5974 24.6426 58.863 24.6426C57.4556 24.6426 56.4905 25.3061 55.827 26.2108H55.7667V24.9241H53.1328V38.6162ZM58.3001 33.268C56.6715 33.268 55.8069 32.0416 55.8069 30.1717C55.8069 28.322 56.4905 26.8542 58.1995 26.8542C59.8884 26.8542 60.572 28.2214 60.572 30.1717C60.572 32.122 59.6874 33.268 58.3001 33.268Z" fill="#1F140D"/>
<path opacity="0.5" d="M68.8021 35.54C71.3756 35.54 73.1449 34.2934 73.1449 32.2225C73.1449 29.8098 71.2349 29.3273 69.5058 28.9654C68.038 28.6638 66.6708 28.5833 66.6708 27.6987C66.6708 26.9548 67.3745 26.5526 68.4402 26.5526C69.6063 26.5526 70.31 26.9548 70.4306 28.0606H72.9037C72.7026 25.9897 71.1947 24.6426 68.4804 24.6426C66.128 24.6426 64.2782 25.7082 64.2782 27.9399C64.2782 30.1918 66.0878 30.6945 67.9375 31.0564C69.3449 31.3378 70.6518 31.4384 70.6518 32.4236C70.6518 33.1474 69.9682 33.6098 68.7618 33.6098C67.5354 33.6098 66.6909 33.0871 66.51 31.9008H63.9766C64.1375 34.0924 65.8063 35.54 68.8021 35.54Z" fill="#1F140D"/>
<path opacity="0.5" d="M83.5255 35.2381V24.9238H80.7911V30.8751C80.7911 32.2423 80.007 33.2074 78.7202 33.2074C77.5541 33.2074 77.0112 32.5439 77.0112 31.3375V24.9238H74.2969V31.8C74.2969 34.0518 75.5837 35.5196 77.8758 35.5196C79.3234 35.5196 80.1276 34.9767 80.8314 34.0317H80.8917V35.2381H83.5255Z" fill="#1F140D"/>
<path opacity="0.5" d="M85.293 35.2384H88.0275V29.2468C88.0275 27.8796 88.7714 26.995 89.8772 26.995C90.8825 26.995 91.4656 27.5981 91.4656 28.7643V35.2384H94.2V29.2468C94.2 27.8796 94.9037 26.995 96.0497 26.995C97.055 26.995 97.6381 27.5981 97.6381 28.7643V35.2384H100.372V28.3019C100.372 26.05 99.146 24.6426 96.9746 24.6426C95.6677 24.6426 94.582 25.3262 93.8783 26.4521H93.8381C93.3354 25.3664 92.2899 24.6426 90.983 24.6426C89.5555 24.6426 88.5502 25.3664 87.9872 26.3114H87.9269V24.9241H85.293V35.2384Z" fill="#1F140D"/>
<path opacity="0.5" d="M48.6758 17.572H51.4102V3.19629H48.6758V17.572Z" fill="#1F140D"/>
<path opacity="0.5" d="M58.0954 17.874C61.2923 17.874 63.4838 15.5015 63.4838 12.4253C63.4838 9.34905 61.2923 6.97656 58.0954 6.97656C54.8986 6.97656 52.707 9.34905 52.707 12.4253C52.707 15.5015 54.8986 17.874 58.0954 17.874ZM58.0954 15.783C56.4065 15.783 55.4817 14.4359 55.4817 12.4253C55.4817 10.4147 56.4065 9.04747 58.0954 9.04747C59.7642 9.04747 60.7092 10.4147 60.7092 12.4253C60.7092 14.4359 59.7642 15.783 58.0954 15.783Z" fill="#1F140D"/>
<path opacity="0.5" d="M69.3005 21.091C70.8286 21.091 72.1556 20.7291 73.0201 19.9248C73.7841 19.2211 74.2466 18.2359 74.2466 16.7883V7.25804H71.6127V8.34376H71.5725C70.9492 7.4792 70.0042 6.97656 68.7174 6.97656C66.1037 6.97656 64.2539 8.94694 64.2539 12.0232C64.2539 15.1396 66.5058 16.9491 68.7979 16.9491C70.1048 16.9491 70.8889 16.4264 71.4921 15.7428H71.5524V16.8687C71.5524 18.2761 70.8085 19.02 69.2603 19.02C67.9936 19.02 67.4106 18.5174 67.1894 17.874H64.4751C64.7566 19.8846 66.4857 21.091 69.3005 21.091ZM69.2603 14.7576C67.8529 14.7576 66.928 13.7322 66.928 11.983C66.928 10.2539 67.8529 9.1681 69.2402 9.1681C70.8889 9.1681 71.6931 10.4549 71.6931 11.9629C71.6931 13.4909 70.9894 14.7576 69.2603 14.7576Z" fill="#1F140D"/>
<path opacity="0.5" d="M80.8923 17.8735C84.0891 17.8735 86.2807 15.501 86.2807 12.4248C86.2807 9.34856 84.0891 6.97607 80.8923 6.97607C77.6955 6.97607 75.5039 9.34856 75.5039 12.4248C75.5039 15.501 77.6955 17.8735 80.8923 17.8735ZM80.8923 15.7825C79.2034 15.7825 78.2785 14.4354 78.2785 12.4248C78.2785 10.4142 79.2034 9.04698 80.8923 9.04698C82.5611 9.04698 83.5061 10.4142 83.5061 12.4248C83.5061 14.4354 82.5611 15.7825 80.8923 15.7825Z" fill="#1F140D"/>
<path opacity="0.5" d="M88.6797 13.6312H100.502V11.2788H88.6797V13.6312Z" fill="#1F140D"/>
<path opacity="0.5" d="M101.367 23.1718C101.367 22.7091 101.742 22.334 102.205 22.334H103.88C104.343 22.334 104.718 22.7091 104.718 23.1718C104.718 23.6344 104.343 24.0095 103.88 24.0095H102.205C101.742 24.0095 101.367 23.6344 101.367 23.1718Z" fill="#1F140D"/>
<path opacity="0.5" fill-rule="evenodd" clip-rule="evenodd" d="M21.0234 0C32.0691 0 41.0234 8.9543 41.0234 20C41.0234 31.0457 32.0691 40 21.0234 40C9.97774 40 1.02344 31.0457 1.02344 20C1.02344 8.9543 9.97774 0 21.0234 0ZM20.3005 1.49659C18.0189 1.81769 15.8463 3.65108 14.1598 6.7174C13.6706 7.60683 13.2292 8.58946 12.8445 9.65044C15.1377 9.07417 17.6568 8.73442 20.3005 8.68187V1.49659ZM11.1542 10.1308C11.6325 8.62958 12.2177 7.2484 12.893 6.02065C13.729 4.50059 14.7212 3.18795 15.8391 2.17977C9.76023 3.94523 4.96866 8.73679 3.20321 14.8157C4.21138 13.6978 5.52403 12.7056 7.04409 11.8696C8.27184 11.1943 9.65301 10.6091 11.1542 10.1308ZM10.6738 11.8211C10.0976 14.1143 9.75786 16.6334 9.70531 19.2771H2.52002C2.84113 16.9954 4.67452 14.8228 7.74084 13.1364C8.63027 12.6472 9.6129 12.2058 10.6738 11.8211ZM11.1514 19.2771C11.2111 16.392 11.6264 13.6834 12.3136 11.2902C14.7068 10.603 17.4155 10.1876 20.3005 10.1279V13.2508C19.2242 16.0062 17.029 18.2012 14.2735 19.2771H11.1514ZM9.70531 20.7229H2.52002C2.84113 23.0046 4.67452 25.1771 7.74084 26.8636C8.63027 27.3528 9.6129 27.7942 10.6738 28.1789C10.0976 25.8857 9.75786 23.3666 9.70531 20.7229ZM12.3136 28.7098C11.6264 26.3166 11.2111 23.608 11.1514 20.7229H14.2735C17.029 21.7988 19.2243 23.9938 20.3005 26.7492V29.8721C17.4155 29.8124 14.7068 29.397 12.3136 28.7098ZM11.1542 29.8692C9.65301 29.3909 8.27184 28.8057 7.04409 28.1304C5.52403 27.2944 4.21138 26.3022 3.20321 25.1843C4.96866 31.2632 9.76023 36.0548 15.8391 37.8202C14.7212 36.812 13.729 35.4994 12.893 33.9793C12.2177 32.7516 11.6325 31.3704 11.1542 29.8692ZM20.3005 38.5034C18.0189 38.1823 15.8463 36.3489 14.1598 33.2826C13.6706 32.3932 13.2292 31.4105 12.8445 30.3496C15.1377 30.9258 17.6568 31.2656 20.3005 31.3181V38.5034ZM26.2077 37.8202C27.3256 36.812 28.3178 35.4994 29.1539 33.9793C29.8291 32.7516 30.4143 31.3704 30.8926 29.8692C32.3938 29.3909 33.775 28.8057 35.0028 28.1304C36.5228 27.2944 37.8355 26.3022 38.8436 25.1843C37.0782 31.2632 32.2866 36.0548 26.2077 37.8202ZM29.2023 30.3496C28.8176 31.4105 28.3762 32.3932 27.887 33.2826C26.2006 36.3489 24.028 38.1823 21.7463 38.5034V31.3181C24.39 31.2656 26.9091 30.9258 29.2023 30.3496ZM31.373 28.1789C32.4339 27.7942 33.4166 27.3528 34.306 26.8636C37.3723 25.1771 39.2057 23.0046 39.5268 20.7229H32.3415C32.289 23.3666 31.9492 25.8857 31.373 28.1789ZM30.8955 20.7229C30.8358 23.608 30.4204 26.3166 29.7332 28.7098C27.34 29.397 24.6314 29.8124 21.7463 29.8721V26.7515C22.8222 23.9951 25.0179 21.7991 27.7742 20.7229H30.8955ZM32.3415 19.2771H39.5268C39.2057 16.9954 37.3723 14.8228 34.306 13.1364C33.4166 12.6472 32.4339 12.2058 31.373 11.8211C31.9492 14.1143 32.289 16.6334 32.3415 19.2771ZM29.7332 11.2902C30.4204 13.6834 30.8358 16.392 30.8955 19.2771H27.7742C25.0179 18.2009 22.8222 16.0049 21.7463 13.2485V10.1279C24.6314 10.1876 27.34 10.603 29.7332 11.2902ZM30.8926 10.1308C32.3938 10.6091 33.775 11.1943 35.0028 11.8696C36.5228 12.7056 37.8355 13.6978 38.8436 14.8157C37.0782 8.73679 32.2866 3.94523 26.2077 2.17977C27.3256 3.18795 28.3178 4.50059 29.1539 6.02065C29.8291 7.2484 30.4143 8.62958 30.8926 10.1308ZM21.7463 1.49659C24.028 1.81769 26.2006 3.65108 27.887 6.7174C28.3762 7.60684 28.8176 8.58946 29.2023 9.65044C26.9091 9.07417 24.39 8.73442 21.7463 8.68187V1.49659Z" fill="#1F140D"/>
</svg>
