<svg width="203" height="40" viewBox="0 0 203 40" fill="none" xmlns="http://www.w3.org/2000/svg">
<g clip-path="url(#clip0_256_868)">
<path opacity="0.5" fill-rule="evenodd" clip-rule="evenodd" d="M26.0557 11.6853C24.4112 10.5865 22.4778 10 20.5 10V0C24.4556 0 28.3224 1.17298 31.6114 3.37061C34.9004 5.56823 37.4638 8.69181 38.9776 12.3463C40.4913 16.0008 40.8874 20.0222 40.1157 23.9018C39.344 27.7814 37.4392 31.3451 34.6421 34.1421C31.8451 36.9392 28.2814 38.844 24.4018 39.6157C20.5222 40.3874 16.5008 39.9913 12.8463 38.4776C9.1918 36.9638 6.06823 34.4004 3.87061 31.1114C1.67298 27.8224 0.5 23.9556 0.5 20H10.5C10.5 21.9778 11.0865 23.9112 12.1853 25.5557C13.2841 27.2002 14.8459 28.4819 16.6732 29.2388C18.5004 29.9957 20.5111 30.1937 22.4509 29.8078C24.3907 29.422 26.1725 28.4696 27.5711 27.0711C28.9696 25.6725 29.922 23.8907 30.3078 21.9509C30.6937 20.0111 30.4957 18.0004 29.7388 16.1732C28.9819 14.3459 27.7002 12.7841 26.0557 11.6853Z" fill="#1F140D"/>
<path opacity="0.5" fill-rule="evenodd" clip-rule="evenodd" d="M10.5 5.28493e-06C10.5 1.31322 10.2413 2.61358 9.73879 3.82684C9.23624 5.04009 8.49965 6.14248 7.57106 7.07107C6.64248 7.99966 5.54009 8.73625 4.32683 9.2388C3.11357 9.74134 1.81321 10 0.5 10L0.5 20C3.12643 20 5.72715 19.4827 8.15367 18.4776C10.5802 17.4725 12.785 15.9993 14.6421 14.1421C16.4993 12.285 17.9725 10.0802 18.9776 7.65367C19.9827 5.22715 20.5 2.62643 20.5 0L10.5 5.28493e-06Z" fill="#1F140D"/>
<path opacity="0.5" d="M126.118 14.4521H121.266V29.8644H126.118V14.4521Z" fill="#1F140D"/>
<path opacity="0.5" d="M121.808 11.5666C122.315 12.074 122.949 12.3277 123.71 12.3277C124.471 12.3277 125.095 12.074 125.581 11.5666C126.068 11.0381 126.311 10.4038 126.311 9.66385C126.311 8.90277 126.068 8.26849 125.581 7.76111C125.095 7.25369 124.471 7 123.71 7C122.949 7 122.315 7.25369 121.808 7.76111C121.321 8.26849 121.078 8.90277 121.078 9.66385C121.078 10.4038 121.321 11.0381 121.808 11.5666Z" fill="#1F140D"/>
<path opacity="0.5" d="M51.6562 29.8647V7.47559H56.6352V25.4884H66.5613V29.8647H51.6562Z" fill="#1F140D"/>
<path opacity="0.5" fill-rule="evenodd" clip-rule="evenodd" d="M75.5292 30.2135C73.9436 30.2135 72.506 29.8647 71.2163 29.167C69.9478 28.4482 68.9436 27.4757 68.2036 26.2494C67.4637 25.0232 67.0938 23.649 67.0938 22.1268C67.0938 20.6046 67.4637 19.241 68.2036 18.0359C68.9436 16.8308 69.9478 15.8794 71.2163 15.1818C72.4848 14.4629 73.9225 14.1035 75.5292 14.1035C77.136 14.1035 78.5736 14.4524 79.8421 15.15C81.1106 15.8477 82.1149 16.8097 82.8548 18.0359C83.5948 19.241 83.9648 20.6046 83.9648 22.1268C83.9648 23.649 83.5948 25.0232 82.8548 26.2494C82.1149 27.4757 81.1106 28.4482 79.8421 29.167C78.5736 29.8647 77.136 30.2135 75.5292 30.2135ZM75.5292 25.8055C76.2269 25.8055 76.84 25.6575 77.3686 25.3615C77.8971 25.0444 78.2988 24.611 78.5736 24.0613C78.8696 23.4905 79.0176 22.8456 79.0176 22.1268C79.0176 21.408 78.8696 20.7843 78.5736 20.2558C78.2776 19.7061 77.8654 19.2833 77.3368 18.9873C76.8294 18.6701 76.2269 18.5116 75.5292 18.5116C74.8527 18.5116 74.2502 18.6701 73.7216 18.9873C73.1931 19.2833 72.7808 19.7061 72.4848 20.2558C72.1888 20.8055 72.0409 21.4397 72.0409 22.1585C72.0409 22.8562 72.1888 23.4905 72.4848 24.0613C72.7808 24.611 73.1931 25.0444 73.7216 25.3615C74.2502 25.6575 74.8527 25.8055 75.5292 25.8055Z" fill="#1F140D"/>
<path opacity="0.5" fill-rule="evenodd" clip-rule="evenodd" d="M87.8066 35.8902C89.0962 36.4821 90.5867 36.7781 92.2781 36.7781C93.9271 36.7781 95.3965 36.4504 96.6861 35.795C97.9758 35.1396 98.9905 34.2306 99.7305 33.0678C100.47 31.905 100.841 30.5308 100.841 28.9451V14.4525H96.0835V15.488C95.7297 15.1902 95.3279 14.9402 94.8785 14.7379C94.0539 14.3362 93.1131 14.1353 92.0561 14.1353C90.6396 14.1353 89.3816 14.4736 88.2823 15.1501C87.1828 15.8055 86.3161 16.7146 85.6818 17.8774C85.0475 19.0191 84.7305 20.3087 84.7305 21.7464C84.7305 23.1629 85.0475 24.4525 85.6818 25.6153C86.3161 26.7781 87.1828 27.6978 88.2823 28.3743C89.3816 29.0508 90.6396 29.3891 92.0561 29.3891C93.092 29.3891 94.0328 29.1883 94.8785 28.7866C95.2881 28.592 95.6581 28.3627 95.9884 28.0986V29.072C95.9884 30.1502 95.6396 30.9853 94.9419 31.5773C94.2654 32.1693 93.3246 32.4652 92.1195 32.4652C91.147 32.4652 90.3119 32.2961 89.6142 31.9578C88.9377 31.6196 88.3245 31.1227 87.7748 30.4673L84.7939 33.4483C85.5338 34.5054 86.5381 35.3194 87.8066 35.8902ZM94.7199 24.6322C94.2336 24.9282 93.6523 25.0762 92.9757 25.0762C92.2992 25.0762 91.7072 24.9282 91.1998 24.6322C90.7135 24.3362 90.333 23.9345 90.0582 23.4271C89.7833 22.8986 89.6459 22.3383 89.6459 21.7464C89.6459 21.1121 89.7833 20.5413 90.0582 20.0339C90.333 19.5265 90.7241 19.1248 91.2315 18.8288C91.7389 18.5328 92.3203 18.3848 92.9757 18.3848C93.6523 18.3848 94.2336 18.5328 94.7199 18.8288C95.2273 19.1248 95.6078 19.5265 95.8616 20.0339C96.1364 20.5413 96.2738 21.1121 96.2738 21.7464C96.2738 22.3806 96.1364 22.9514 95.8616 23.4588C95.6078 23.9451 95.2273 24.3362 94.7199 24.6322Z" fill="#1F140D"/>
<path opacity="0.5" fill-rule="evenodd" clip-rule="evenodd" d="M111.049 30.2135C109.463 30.2135 108.025 29.8647 106.736 29.167C105.467 28.4482 104.463 27.4757 103.723 26.2494C102.983 25.0232 102.613 23.649 102.613 22.1268C102.613 20.6046 102.983 19.241 103.723 18.0359C104.463 16.8308 105.467 15.8794 106.736 15.1818C108.004 14.4629 109.442 14.1035 111.049 14.1035C112.655 14.1035 114.093 14.4524 115.361 15.15C116.63 15.8477 117.634 16.8097 118.374 18.0359C119.114 19.241 119.484 20.6046 119.484 22.1268C119.484 23.649 119.114 25.0232 118.374 26.2494C117.634 27.4757 116.63 28.4482 115.361 29.167C114.093 29.8647 112.655 30.2135 111.049 30.2135ZM111.049 25.8055C111.746 25.8055 112.359 25.6575 112.888 25.3615C113.416 25.0444 113.818 24.611 114.093 24.0613C114.389 23.4905 114.537 22.8456 114.537 22.1268C114.537 21.408 114.389 20.7843 114.093 20.2558C113.797 19.7061 113.385 19.2833 112.856 18.9873C112.349 18.6701 111.746 18.5116 111.049 18.5116C110.372 18.5116 109.769 18.6701 109.241 18.9873C108.712 19.2833 108.3 19.7061 108.004 20.2558C107.708 20.8055 107.56 21.4397 107.56 22.1585C107.56 22.8562 107.708 23.4905 108.004 24.0613C108.3 24.611 108.712 25.0444 109.241 25.3615C109.769 25.6575 110.372 25.8055 111.049 25.8055Z" fill="#1F140D"/>
<path opacity="0.5" fill-rule="evenodd" clip-rule="evenodd" d="M137.781 30.1819C136.746 30.1819 135.794 29.9811 134.927 29.5794C134.471 29.368 134.059 29.1156 133.691 28.8222V36.3659H128.902V14.4525H133.754V15.5162C134.106 15.2283 134.497 14.9794 134.927 14.7696C135.794 14.3467 136.746 14.1353 137.781 14.1353C139.24 14.1353 140.53 14.4842 141.65 15.1819C142.792 15.8795 143.68 16.8309 144.314 18.036C144.97 19.2411 145.297 20.6153 145.297 22.1586C145.297 23.702 144.97 25.0762 144.314 26.2813C143.68 27.4864 142.792 28.4377 141.65 29.1354C140.53 29.8331 139.24 30.1819 137.781 30.1819ZM136.894 25.8056C137.591 25.8056 138.194 25.647 138.701 25.3299C139.23 25.0128 139.642 24.5793 139.938 24.0297C140.234 23.48 140.382 22.8563 140.382 22.1586C140.382 21.4398 140.234 20.8056 139.938 20.2559C139.642 19.7062 139.23 19.2834 138.701 18.9874C138.194 18.6702 137.602 18.5117 136.925 18.5117C136.249 18.5117 135.646 18.6702 135.118 18.9874C134.61 19.2834 134.209 19.7062 133.913 20.2559C133.617 20.8056 133.469 21.4398 133.469 22.1586C133.469 22.8563 133.606 23.48 133.881 24.0297C134.177 24.5793 134.589 25.0128 135.118 25.3299C135.646 25.647 136.238 25.8056 136.894 25.8056Z" fill="#1F140D"/>
<path opacity="0.5" d="M150.044 29.8968C150.932 30.1294 151.83 30.2456 152.739 30.2456C154.663 30.2456 156.185 29.8017 157.306 28.9137C158.447 28.0258 159.018 26.8313 159.018 25.3302C159.018 24.3577 158.839 23.5754 158.479 22.9835C158.12 22.3704 157.655 21.8841 157.084 21.5247C156.513 21.1653 155.91 20.8798 155.276 20.6684C154.642 20.457 154.039 20.2773 153.469 20.1293C152.898 19.9813 152.433 19.8122 152.073 19.6219C151.714 19.4316 151.534 19.1779 151.534 18.8608C151.534 18.5648 151.672 18.3428 151.946 18.1948C152.221 18.0257 152.633 17.9412 153.183 17.9412C153.754 17.9412 154.335 18.0574 154.927 18.29C155.54 18.5225 156.09 18.9243 156.576 19.4951L159.335 16.7044C158.638 15.8164 157.729 15.1504 156.608 14.7065C155.509 14.2414 154.304 14.0088 152.993 14.0088C151.746 14.0088 150.657 14.2202 149.727 14.643C148.796 15.0659 148.077 15.6473 147.57 16.3872C147.063 17.106 146.809 17.9623 146.809 18.956C146.809 19.8862 146.989 20.6579 147.348 21.271C147.707 21.8629 148.173 22.3281 148.743 22.6663C149.314 23.0046 149.917 23.2689 150.551 23.4591C151.185 23.6494 151.788 23.8291 152.359 23.9983C152.929 24.1463 153.395 24.326 153.754 24.5374C154.135 24.7277 154.325 25.0131 154.325 25.3936C154.325 25.6896 154.166 25.9221 153.849 26.0913C153.553 26.2604 153.12 26.345 152.549 26.345C151.724 26.345 150.963 26.197 150.266 25.901C149.568 25.5839 148.965 25.1505 148.458 24.6008L145.699 27.3915C146.228 27.9623 146.862 28.4698 147.602 28.9137C148.363 29.3365 149.177 29.6642 150.044 29.8968Z" fill="#1F140D"/>
<path opacity="0.5" d="M167.867 30.2132C166.451 30.2132 165.193 29.9278 164.094 29.357C163.015 28.765 162.17 27.9616 161.557 26.9468C160.943 25.9109 160.637 24.727 160.637 23.395V14.4521H165.489V23.3316C165.489 23.8601 165.573 24.3147 165.743 24.6952C165.933 25.0758 166.208 25.3718 166.567 25.5832C166.927 25.7946 167.36 25.9003 167.867 25.9003C168.586 25.9003 169.157 25.6783 169.58 25.2343C170.003 24.7692 170.214 24.135 170.214 23.3316V14.4521H175.066V23.3633C175.066 24.7164 174.76 25.9109 174.146 26.9468C173.533 27.9616 172.688 28.765 171.609 29.357C170.531 29.9278 169.284 30.2132 167.867 30.2132Z" fill="#1F140D"/>
<path opacity="0.5" d="M182.332 14.4525H177.48V29.8648H182.332V20.8584C182.332 20.3299 182.438 19.8859 182.649 19.5265C182.882 19.1671 183.189 18.8922 183.569 18.702C183.95 18.4905 184.383 18.3848 184.869 18.3848C185.567 18.3848 186.148 18.6068 186.613 19.0508C187.1 19.4736 187.343 20.0762 187.343 20.8584V29.8648H192.195V20.8584C192.195 20.3299 192.301 19.8859 192.512 19.5265C192.745 19.1671 193.051 18.8922 193.432 18.702C193.812 18.4905 194.246 18.3848 194.732 18.3848C195.43 18.3848 196.011 18.6068 196.476 19.0508C196.962 19.4736 197.205 20.0762 197.205 20.8584V29.8648H202.058V20.3193C202.058 19.0297 201.783 17.9303 201.233 17.0212C200.704 16.0909 199.975 15.3827 199.045 14.8965C198.136 14.389 197.089 14.1353 195.905 14.1353C194.7 14.1353 193.611 14.3996 192.639 14.9282C192.007 15.2649 191.455 15.6995 190.982 16.2319C190.541 15.675 190.005 15.2193 189.372 14.8647C188.527 14.3785 187.565 14.1353 186.487 14.1353C185.345 14.1353 184.32 14.3785 183.411 14.8647C183.015 15.067 182.656 15.3093 182.332 15.5916V14.4525Z" fill="#1F140D"/>
</g>
<defs>
<clipPath id="clip0_256_868">
<rect width="202" height="40" fill="white" transform="translate(0.5)"/>
</clipPath>
</defs>
</svg>
