<svg width="32" height="35" viewBox="0 0 32 35" fill="none" xmlns="http://www.w3.org/2000/svg">
<path fill-rule="evenodd" clip-rule="evenodd" d="M0.792001 2.59277C0.846013 2.13865 1.00522 1.70339 1.25696 1.3216C1.50871 0.939803 1.84605 0.622001 2.24217 0.393457C2.63829 0.164912 3.08226 0.0319268 3.53879 0.00507327C3.99532 -0.0217803 4.45182 0.0582382 4.872 0.238767C6.996 1.14677 11.756 3.30477 17.796 6.79077C23.838 10.2788 28.088 13.3248 29.934 14.7068C31.51 15.8888 31.514 18.2328 29.936 19.4188C28.108 20.7928 23.91 23.7988 17.796 27.3308C11.676 30.8628 6.972 32.9948 4.868 33.8908C3.056 34.6648 1.028 33.4908 0.792001 31.5368C0.516001 29.2528 0 24.0668 0 17.0628C0 10.0628 0.514001 4.87877 0.792001 2.59277Z" fill="#CB30E0"/>
</svg>
