<svg width="20" height="20" viewBox="0 0 20 20" fill="none" xmlns="http://www.w3.org/2000/svg">
<path d="M2.5 6.66699C2.5 4.31033 2.5 3.13116 3.2325 2.39949C3.96417 1.66699 5.14333 1.66699 7.5 1.66699H12.5C14.8567 1.66699 16.0358 1.66699 16.7675 2.39949C17.5 3.13116 17.5 4.31033 17.5 6.66699V13.3337C17.5 15.6903 17.5 16.8695 16.7675 17.6012C16.0358 18.3337 14.8567 18.3337 12.5 18.3337H7.5C5.14333 18.3337 3.96417 18.3337 3.2325 17.6012C2.5 16.8695 2.5 15.6903 2.5 13.3337V6.66699Z" stroke="#6B7280" stroke-width="1.25"/>
<path d="M6.66699 2.08398V18.334M1.66699 10.0007H3.33366M1.66699 13.334H3.33366M1.66699 6.66732H3.33366M9.58366 5.41732H13.7503M9.58366 8.33398H13.7503" stroke="#6B7280" stroke-width="1.25" stroke-linecap="round"/>
</svg>
