<svg width="20" height="20" viewBox="0 0 20 20" fill="none" xmlns="http://www.w3.org/2000/svg">
<path fill-rule="evenodd" clip-rule="evenodd" d="M10 18.3332C10.9849 18.3332 11.9602 18.1392 12.8701 17.7623C13.7801 17.3854 14.6069 16.8329 15.3033 16.1365C15.9997 15.44 16.5522 14.6132 16.9291 13.7033C17.306 12.7934 17.5 11.8181 17.5 10.8332C17.5 9.84826 17.306 8.87299 16.9291 7.96304C16.5522 7.0531 15.9997 6.22631 15.3033 5.52987C14.6069 4.83343 13.7801 4.28098 12.8701 3.90407C11.9602 3.52716 10.9849 3.33317 10 3.33317C8.01088 3.33317 6.10322 4.12335 4.6967 5.52987C3.29018 6.93639 2.5 8.84405 2.5 10.8332C2.5 12.8223 3.29018 14.7299 4.6967 16.1365C6.10322 17.543 8.01088 18.3332 10 18.3332ZM10 6.87484C10.1658 6.87484 10.3247 6.94069 10.4419 7.0579C10.5592 7.17511 10.625 7.33408 10.625 7.49984V10.8332C10.625 10.9989 10.5592 11.1579 10.4419 11.2751C10.3247 11.3923 10.1658 11.4582 10 11.4582C9.83424 11.4582 9.67527 11.3923 9.55806 11.2751C9.44085 11.1579 9.375 10.9989 9.375 10.8332V7.49984C9.375 7.33408 9.44085 7.17511 9.55806 7.0579C9.67527 6.94069 9.83424 6.87484 10 6.87484ZM7.70833 1.6665C7.70833 1.50074 7.77418 1.34177 7.89139 1.22456C8.0086 1.10735 8.16757 1.0415 8.33333 1.0415H11.6667C11.8324 1.0415 11.9914 1.10735 12.1086 1.22456C12.2258 1.34177 12.2917 1.50074 12.2917 1.6665C12.2917 1.83226 12.2258 1.99124 12.1086 2.10845C11.9914 2.22566 11.8324 2.2915 11.6667 2.2915H8.33333C8.16757 2.2915 8.0086 2.22566 7.89139 2.10845C7.77418 1.99124 7.70833 1.83226 7.70833 1.6665Z" fill="#CB30E0"/>
</svg>
