<svg width="20" height="20" viewBox="0 0 20 20" fill="none" xmlns="http://www.w3.org/2000/svg">
<path d="M10.0003 8.33317C11.8413 8.33317 13.3337 6.84079 13.3337 4.99984C13.3337 3.15889 11.8413 1.6665 10.0003 1.6665C8.15938 1.6665 6.66699 3.15889 6.66699 4.99984C6.66699 6.84079 8.15938 8.33317 10.0003 8.33317Z" stroke="#6B7280" stroke-width="1.25"/>
<path d="M15 7.49967C16.3808 7.49967 17.5 6.56634 17.5 5.41634C17.5 4.26634 16.3808 3.33301 15 3.33301M5 7.49967C3.61917 7.49967 2.5 6.56634 2.5 5.41634C2.5 4.26634 3.61917 3.33301 5 3.33301" stroke="#6B7280" stroke-width="1.25" stroke-linecap="round"/>
<path d="M10 17.4997C12.7614 17.4997 15 16.0073 15 14.1663C15 12.3254 12.7614 10.833 10 10.833C7.23858 10.833 5 12.3254 5 14.1663C5 16.0073 7.23858 17.4997 10 17.4997Z" stroke="#6B7280" stroke-width="1.25"/>
<path d="M16.6668 15.8332C18.1285 15.5123 19.1668 14.7007 19.1668 13.7498C19.1668 12.799 18.1285 11.9873 16.6668 11.6665M3.3335 15.8332C1.87183 15.5123 0.833496 14.7007 0.833496 13.7498C0.833496 12.799 1.87183 11.9873 3.3335 11.6665" stroke="#6B7280" stroke-width="1.25" stroke-linecap="round"/>
</svg>
