<svg width="20" height="20" viewBox="0 0 20 20" fill="none" xmlns="http://www.w3.org/2000/svg">
<path d="M1.6665 9.99984C1.6665 14.6023 5.39734 18.3332 9.99984 18.3332C14.6023 18.3332 18.3332 14.6023 18.3332 9.99984C18.3332 5.39734 14.6023 1.6665 9.99984 1.6665C5.39734 1.6665 1.6665 5.39734 1.6665 9.99984ZM16.6665 9.99984C16.6665 11.7679 15.9641 13.4636 14.7139 14.7139C13.4636 15.9641 11.7679 16.6665 9.99984 16.6665C8.23173 16.6665 6.53603 15.9641 5.28579 14.7139C4.03555 13.4636 3.33317 11.7679 3.33317 9.99984C3.33317 8.23173 4.03555 6.53603 5.28579 5.28579C6.53603 4.03555 8.23173 3.33317 9.99984 3.33317C11.7679 3.33317 13.4636 4.03555 14.7139 5.28579C15.9641 6.53603 16.6665 8.23173 16.6665 9.99984ZM14.9998 9.99984C14.9998 11.3259 14.4731 12.5977 13.5354 13.5354C12.5977 14.4731 11.3259 14.9998 9.99984 14.9998C8.67375 14.9998 7.40199 14.4731 6.4643 13.5354C5.52662 12.5977 4.99984 11.3259 4.99984 9.99984H9.99984V4.99984C11.3259 4.99984 12.5977 5.52662 13.5354 6.4643C14.4731 7.40199 14.9998 8.67375 14.9998 9.99984Z" fill="#149E49"/>
</svg>
