<svg width="20" height="20" viewBox="0 0 20 20" fill="none" xmlns="http://www.w3.org/2000/svg">
<mask id="mask0_106_17712" style="mask-type:luminance" maskUnits="userSpaceOnUse" x="1" y="1" width="18" height="18">
<path d="M18.3337 10.0003C18.3337 14.6028 14.6028 18.3337 10.0003 18.3337C5.39783 18.3337 1.66699 14.6028 1.66699 10.0003C1.66699 5.39783 5.39783 1.66699 10.0003 1.66699C14.6028 1.66699 18.3337 5.39783 18.3337 10.0003Z" fill="white"/>
<path fill-rule="evenodd" clip-rule="evenodd" d="M10 6.04199C10.1658 6.04199 10.3247 6.10784 10.4419 6.22505C10.5592 6.34226 10.625 6.50123 10.625 6.66699V9.74199L12.525 11.642C12.5864 11.6992 12.6357 11.7682 12.6698 11.8449C12.704 11.9215 12.7223 12.0043 12.7238 12.0882C12.7253 12.1721 12.7099 12.2555 12.6784 12.3333C12.647 12.4111 12.6002 12.4818 12.5409 12.5412C12.4815 12.6005 12.4108 12.6473 12.333 12.6788C12.2552 12.7102 12.1718 12.7256 12.0879 12.7242C12.004 12.7227 11.9212 12.7043 11.8446 12.6701C11.7679 12.636 11.6989 12.5867 11.6417 12.5253L9.55833 10.442C9.44109 10.3249 9.37515 10.166 9.375 10.0003V6.66699C9.375 6.50123 9.44085 6.34226 9.55806 6.22505C9.67527 6.10784 9.83424 6.04199 10 6.04199Z" fill="black"/>
</mask>
<g mask="url(#mask0_106_17712)">
<path d="M0 0H20V20H0V0Z" fill="#CB30E0"/>
</g>
</svg>
