<svg width="20" height="20" viewBox="0 0 20 20" fill="none" xmlns="http://www.w3.org/2000/svg">
<path d="M13.3334 1.66699H12.5001C11.3217 1.66699 10.7326 1.66699 10.3667 2.03366C10.0001 2.39866 10.0001 2.98783 10.0001 4.16699C10.0001 5.34616 10.0001 5.93449 10.3667 6.30032C10.7317 6.66699 11.3209 6.66699 12.5001 6.66699H13.3334C14.5117 6.66699 15.1009 6.66699 15.4667 6.30032C15.7042 6.06366 15.7884 5.73283 15.8167 5.20866H15.8334L17.1792 5.76949C17.7017 5.98699 17.9626 6.09532 18.1476 5.97199C18.3334 5.84866 18.3334 5.56533 18.3334 5.00033V3.33366C18.3334 2.76866 18.3334 2.48533 18.1476 2.36199C17.9626 2.23866 17.7017 2.34699 17.1792 2.56449L15.8334 3.12533H15.8167C15.7876 2.60116 15.7042 2.27033 15.4667 2.03366C15.1017 1.66699 14.5126 1.66699 13.3334 1.66699ZM6.66672 14.167C4.31005 14.167 3.13089 14.167 2.39922 13.4345C1.92422 12.9603 1.75755 12.2987 1.69922 11.2503H18.3017C18.2434 12.2987 18.0759 12.9603 17.6017 13.4345C16.8676 14.167 15.6892 14.167 13.3334 14.167H10.6251V17.5003H13.3334C13.4991 17.5003 13.6581 17.5662 13.7753 17.6834C13.8925 17.8006 13.9584 17.9596 13.9584 18.1253C13.9584 18.2911 13.8925 18.4501 13.7753 18.5673C13.6581 18.6845 13.4991 18.7503 13.3334 18.7503H6.66672C6.50096 18.7503 6.34199 18.6845 6.22478 18.5673C6.10757 18.4501 6.04172 18.2911 6.04172 18.1253C6.04172 17.9596 6.10757 17.8006 6.22478 17.6834C6.34199 17.5662 6.50096 17.5003 6.66672 17.5003H9.37505V14.167H6.66672Z" fill="#F59E0B"/>
<path d="M18.333 8.33366V9.16699C18.3341 9.62644 18.3324 10.0431 18.328 10.417H1.67215C1.66715 10.0431 1.66521 9.62644 1.66632 9.16699V8.33366C1.66632 5.19116 1.66632 3.61949 2.64299 2.64366C3.61965 1.66783 5.19048 1.66699 8.33298 1.66699H9.09798C8.92715 1.98699 8.84798 2.32199 8.80632 2.62866C8.74965 3.05366 8.74965 3.56866 8.74965 4.09866V4.23533C8.74965 4.76533 8.74965 5.28033 8.80632 5.70533C8.87132 6.18449 9.02798 6.73033 9.48132 7.18449C9.93632 7.63866 10.4822 7.79533 10.9613 7.85949C11.3863 7.91783 11.9013 7.91783 12.4313 7.91699H13.4013C13.9313 7.91699 14.4463 7.91699 14.8713 7.86033C15.3505 7.79533 15.8963 7.63866 16.3505 7.18533C16.4433 7.0926 16.5276 6.99163 16.6022 6.88366L16.6988 6.92366L16.7455 6.94283C16.9622 7.03366 17.2372 7.14783 17.483 7.21033C17.6772 7.26033 17.988 7.31199 18.3313 7.23283C18.3324 7.57671 18.333 7.94366 18.333 8.33366Z" fill="#F59E0B"/>
</svg>
