<svg width="20" height="20" viewBox="0 0 20 20" fill="none" xmlns="http://www.w3.org/2000/svg">
<path fill-rule="evenodd" clip-rule="evenodd" d="M18.3337 10.0003C18.3337 14.6028 14.6028 18.3337 10.0003 18.3337C5.39783 18.3337 1.66699 14.6028 1.66699 10.0003C1.66699 5.39783 5.39783 1.66699 10.0003 1.66699C14.6028 1.66699 18.3337 5.39783 18.3337 10.0003ZM10.0003 14.792C10.1661 14.792 10.3251 14.7261 10.4423 14.6089C10.5595 14.4917 10.6253 14.3328 10.6253 14.167V9.16699C10.6253 9.00123 10.5595 8.84226 10.4423 8.72505C10.3251 8.60784 10.1661 8.54199 10.0003 8.54199C9.83457 8.54199 9.67559 8.60784 9.55838 8.72505C9.44117 8.84226 9.37533 9.00123 9.37533 9.16699V14.167C9.37533 14.512 9.65533 14.792 10.0003 14.792ZM10.0003 5.83366C10.2213 5.83366 10.4333 5.92146 10.5896 6.07774C10.7459 6.23402 10.8337 6.44598 10.8337 6.66699C10.8337 6.88801 10.7459 7.09997 10.5896 7.25625C10.4333 7.41253 10.2213 7.50033 10.0003 7.50033C9.77931 7.50033 9.56735 7.41253 9.41107 7.25625C9.25479 7.09997 9.16699 6.88801 9.16699 6.66699C9.16699 6.44598 9.25479 6.23402 9.41107 6.07774C9.56735 5.92146 9.77931 5.83366 10.0003 5.83366Z" fill="#F59E0B"/>
</svg>
