<svg width="40" height="40" viewBox="0 0 40 40" fill="none" xmlns="http://www.w3.org/2000/svg">
<path fill-rule="evenodd" clip-rule="evenodd" d="M0 20C0 10.572 0 5.858 2.928 2.928C5.86 0 10.572 0 20 0C29.428 0 34.142 0 37.07 2.928C40 5.86 40 10.572 40 20C40 29.428 40 34.142 37.07 37.07C34.144 40 29.428 40 20 40C10.572 40 5.858 40 2.928 37.07C0 34.144 0 29.428 0 20ZM20 31.5C20.3978 31.5 20.7794 31.342 21.0607 31.0607C21.342 30.7794 21.5 30.3978 21.5 30V19.62L24.94 23.06C25.0773 23.2074 25.2429 23.3256 25.4269 23.4076C25.6109 23.4895 25.8095 23.5336 26.011 23.5372C26.2124 23.5407 26.4124 23.5037 26.5992 23.4282C26.786 23.3528 26.9556 23.2405 27.0981 23.0981C27.2405 22.9556 27.3528 22.786 27.4282 22.5992C27.5037 22.4124 27.5407 22.2124 27.5372 22.011C27.5336 21.8095 27.4895 21.6109 27.4076 21.4269C27.3256 21.2429 27.2074 21.0773 27.06 20.94L21.06 14.94C20.7787 14.6591 20.3975 14.5013 20 14.5013C19.6025 14.5013 19.2213 14.6591 18.94 14.94L12.94 20.94C12.7926 21.0773 12.6744 21.2429 12.5924 21.4269C12.5105 21.6109 12.4664 21.8095 12.4628 22.011C12.4593 22.2124 12.4963 22.4124 12.5718 22.5992C12.6472 22.786 12.7595 22.9556 12.9019 23.0981C13.0444 23.2405 13.214 23.3528 13.4008 23.4282C13.5876 23.5037 13.7876 23.5407 13.989 23.5372C14.1904 23.5336 14.3891 23.4895 14.5731 23.4076C14.7571 23.3256 14.9227 23.2074 15.06 23.06L18.5 19.62V30C18.5 30.828 19.172 31.5 20 31.5ZM12 11.5C11.6022 11.5 11.2206 11.342 10.9393 11.0607C10.658 10.7794 10.5 10.3978 10.5 10C10.5 9.60218 10.658 9.22064 10.9393 8.93934C11.2206 8.65804 11.6022 8.5 12 8.5H28C28.3978 8.5 28.7794 8.65804 29.0607 8.93934C29.342 9.22064 29.5 9.60218 29.5 10C29.5 10.3978 29.342 10.7794 29.0607 11.0607C28.7794 11.342 28.3978 11.5 28 11.5H12Z" fill="#149E49"/>
</svg>
