<svg width="17" height="17" viewBox="0 0 17 17" fill="none" xmlns="http://www.w3.org/2000/svg">
<path fill-rule="evenodd" clip-rule="evenodd" d="M6.32646 1.00048C6.19493 1.11853 6.05724 1.22952 5.91396 1.33298C5.66562 1.49965 5.38646 1.61465 5.09312 1.67298C4.96562 1.69798 4.83229 1.70881 4.56646 1.72965C3.89896 1.78298 3.56479 1.80965 3.28646 1.90798C2.96812 2.02019 2.67898 2.20232 2.44031 2.441C2.20163 2.67967 2.0195 2.96881 1.90729 3.28715C1.80896 3.56548 1.78229 3.89965 1.72896 4.56715C1.71939 4.74358 1.70047 4.91938 1.67229 5.09381C1.61396 5.38715 1.49896 5.66631 1.33229 5.91465C1.25979 6.02298 1.17312 6.12465 0.999792 6.32715C0.565625 6.83715 0.348125 7.09215 0.220625 7.35881C-0.0735416 7.97548 -0.0735416 8.69215 0.220625 9.30881C0.348125 9.57548 0.565625 9.83048 0.999792 10.3405C1.17312 10.543 1.25979 10.6446 1.33229 10.753C1.49896 11.0013 1.61396 11.2805 1.67229 11.5738C1.69729 11.7013 1.70812 11.8346 1.72896 12.1005C1.78229 12.768 1.80896 13.1021 1.90729 13.3805C2.0195 13.6988 2.20163 13.988 2.44031 14.2266C2.67898 14.4653 2.96812 14.6474 3.28646 14.7596C3.56479 14.858 3.89896 14.8846 4.56646 14.938C4.83229 14.9588 4.96562 14.9696 5.09312 14.9946C5.38646 15.053 5.66562 15.1688 5.91396 15.3346C6.02229 15.4071 6.12396 15.4938 6.32646 15.6671C6.83646 16.1013 7.09146 16.3188 7.35812 16.4463C7.97479 16.7405 8.69146 16.7405 9.30812 16.4463C9.57479 16.3188 9.82979 16.1013 10.3398 15.6671C10.5423 15.4938 10.644 15.4071 10.7523 15.3346C11.0006 15.168 11.2798 15.053 11.5731 14.9946C11.7006 14.9696 11.834 14.9588 12.0998 14.938C12.7673 14.8846 13.1015 14.858 13.3798 14.7596C13.6981 14.6474 13.9873 14.4653 14.2259 14.2266C14.4646 13.988 14.6468 13.6988 14.759 13.3805C14.8573 13.1021 14.884 12.768 14.9373 12.1005C14.9581 11.8346 14.969 11.7013 14.994 11.5738C15.0523 11.2805 15.1681 11.0013 15.334 10.753C15.4065 10.6446 15.4931 10.543 15.6665 10.3405C16.1006 9.83048 16.3181 9.57548 16.4456 9.30881C16.7398 8.69215 16.7398 7.97548 16.4456 7.35881C16.3181 7.09215 16.1006 6.83715 15.6665 6.32715C15.5484 6.19562 15.4374 6.05793 15.334 5.91465C15.1672 5.66636 15.0516 5.3873 14.994 5.09381C14.9658 4.91938 14.9469 4.74358 14.9373 4.56715C14.884 3.89965 14.8573 3.56548 14.759 3.28715C14.6468 2.96881 14.4646 2.67967 14.2259 2.441C13.9873 2.20232 13.6981 2.02019 13.3798 1.90798C13.1015 1.80965 12.7673 1.78298 12.0998 1.72965C11.9234 1.72008 11.7476 1.70116 11.5731 1.67298C11.2796 1.61533 11.0006 1.49975 10.7523 1.33298C10.609 1.22952 10.4713 1.11853 10.3398 1.00048C9.82979 0.566315 9.57479 0.348815 9.30812 0.221315C9.00374 0.0756248 8.67058 0 8.33313 0C7.99567 0 7.66251 0.0756248 7.35812 0.221315C7.09146 0.348815 6.83646 0.566315 6.32646 1.00048ZM11.9773 6.55298C12.0951 6.42407 12.1586 6.25471 12.1547 6.08014C12.1507 5.90557 12.0796 5.73925 11.9562 5.61578C11.8327 5.49231 11.6664 5.42121 11.4918 5.41727C11.3172 5.41334 11.1479 5.47687 11.019 5.59465L6.97729 9.63631L5.64729 8.30715C5.51838 8.18937 5.34902 8.12584 5.17445 8.12977C4.99989 8.13371 4.83356 8.20481 4.71009 8.32828C4.58662 8.45175 4.51552 8.61807 4.51158 8.79264C4.50765 8.96721 4.57118 9.13657 4.68896 9.26548L6.49729 11.0738C6.62446 11.2007 6.79679 11.272 6.97646 11.272C7.15612 11.272 7.32845 11.2007 7.45562 11.0738L11.9773 6.55298Z" fill="url(#paint0_linear_307_7794)"/>
<defs>
<linearGradient id="paint0_linear_307_7794" x1="8.33313" y1="0" x2="8.33313" y2="16.6669" gradientUnits="userSpaceOnUse">
<stop stop-color="#1E40AF"/>
<stop offset="1" stop-color="#142E82"/>
</linearGradient>
</defs>
</svg>
