<svg width="60" height="60" viewBox="0 0 60 60" fill="none" xmlns="http://www.w3.org/2000/svg">
<path fill-rule="evenodd" clip-rule="evenodd" d="M16.252 40.001H40.002C44.717 40.001 47.072 40.001 48.537 38.536C50.002 37.071 50.002 34.716 50.002 30.001V17.501C50.002 12.786 50.002 10.431 48.537 8.96598C47.072 7.50098 44.717 7.50098 40.002 7.50098H20.002C15.287 7.50098 12.932 7.50098 11.467 8.96598C10.002 10.431 10.002 12.786 10.002 17.501V46.251C10.002 44.5934 10.6604 43.0037 11.8325 41.8316C13.0046 40.6595 14.5944 40.001 16.252 40.001ZM22.502 15.001C21.1759 15.001 19.9041 15.5278 18.9664 16.4654C18.0287 17.4031 17.502 18.6749 17.502 20.001C17.502 21.3271 18.0287 22.5988 18.9664 23.5365C19.9041 24.4742 21.1759 25.001 22.502 25.001H37.502C38.828 25.001 40.0998 24.4742 41.0375 23.5365C41.9752 22.5988 42.502 21.3271 42.502 20.001C42.502 18.6749 41.9752 17.4031 41.0375 16.4654C40.0998 15.5278 38.828 15.001 37.502 15.001H22.502Z" fill="#192BC2"/>
<path d="M40 37.5H16.25V42.5H40V37.5ZM46.7675 36.7675C46.5775 36.9575 46.2375 37.1925 45.1525 37.34C43.9975 37.495 42.4275 37.5 40 37.5V42.5C42.2875 42.5 44.2525 42.505 45.82 42.295C47.4575 42.075 49.03 41.5775 50.3025 40.3025L46.7675 36.7675ZM47.5 30C47.5 32.4275 47.495 33.9975 47.34 35.1525C47.1925 36.2375 46.9575 36.5775 46.7675 36.7675L50.3025 40.3025C51.5775 39.0275 52.075 37.4575 52.295 35.82C52.505 34.25 52.5 32.2875 52.5 30H47.5ZM47.5 17.5V30H52.5V17.5H47.5ZM46.7675 10.7325C46.9575 10.9225 47.1925 11.2625 47.34 12.3475C47.495 13.5 47.5 15.0725 47.5 17.5H52.5C52.5 15.2125 52.505 13.2475 52.295 11.68C52.075 10.0425 51.5775 8.47001 50.3025 7.19751L46.7675 10.7325ZM40 10C42.4275 10 43.9975 10.005 45.1525 10.16C46.2375 10.3075 46.5775 10.5425 46.7675 10.7325L50.3025 7.19751C49.0275 5.92251 47.4575 5.42501 45.82 5.20501C44.25 4.99501 42.2875 5.00001 40 5.00001V10ZM20 10H40V5.00001H20V10ZM13.2325 10.7325C13.4225 10.5425 13.7625 10.3075 14.8475 10.16C16 10.005 17.5725 10 20 10V5.00001C17.7125 5.00001 15.7475 4.99501 14.18 5.20501C12.5425 5.42501 10.97 5.92251 9.69751 7.19751L13.2325 10.7325ZM12.5 17.5C12.5 15.0725 12.505 13.5025 12.66 12.3475C12.8075 11.2625 13.0425 10.9225 13.2325 10.7325L9.69751 7.19751C8.42251 8.47251 7.92501 10.0425 7.70501 11.68C7.49501 13.25 7.50001 15.2125 7.50001 17.5H12.5ZM12.5 46.25V17.5H7.50001V46.25H12.5ZM16.25 37.5C13.9294 37.5 11.7038 38.4219 10.0628 40.0628C8.42188 41.7038 7.50001 43.9294 7.50001 46.25H12.5C12.5 45.2554 12.8951 44.3016 13.5984 43.5984C14.3016 42.8951 15.2554 42.5 16.25 42.5V37.5ZM20 20C20 19.337 20.2634 18.7011 20.7322 18.2322C21.2011 17.7634 21.837 17.5 22.5 17.5V12.5C20.5109 12.5 18.6032 13.2902 17.1967 14.6967C15.7902 16.1032 15 18.0109 15 20H20ZM22.5 22.5C21.837 22.5 21.2011 22.2366 20.7322 21.7678C20.2634 21.2989 20 20.6631 20 20H15C15 21.9891 15.7902 23.8968 17.1967 25.3033C18.6032 26.7098 20.5109 27.5 22.5 27.5V22.5ZM37.5 22.5H22.5V27.5H37.5V22.5ZM40 20C40 20.6631 39.7366 21.2989 39.2678 21.7678C38.7989 22.2366 38.1631 22.5 37.5 22.5V27.5C39.4891 27.5 41.3968 26.7098 42.8033 25.3033C44.2098 23.8968 45 21.9891 45 20H40ZM37.5 17.5C38.1631 17.5 38.7989 17.7634 39.2678 18.2322C39.7366 18.7011 40 19.337 40 20H45C45 18.0109 44.2098 16.1032 42.8033 14.6967C41.3968 13.2902 39.4891 12.5 37.5 12.5V17.5ZM22.5 17.5H37.5V12.5H22.5V17.5ZM27.5 50H16.25V55H27.5V50ZM7.50001 46.25C7.50001 48.5707 8.42188 50.7963 10.0628 52.4372C11.7038 54.0781 13.9294 55 16.25 55V50C15.2554 50 14.3016 49.6049 13.5984 48.9017C12.8951 48.1984 12.5 47.2446 12.5 46.25H7.50001Z" fill="#192BC2"/>
<path d="M49.998 52.501H24.998" stroke="#192BC2" stroke-width="5" stroke-linecap="round"/>
</svg>
